<?xml version="1.0" encoding="utf-8"?>
<!-- Generator: Adobe Illustrator 18.1.1, SVG Export Plug-In . SVG Version: 6.00 Build 0)  -->
<svg version="1.1" id="Ebene_1" xmlns="http://www.w3.org/2000/svg" xmlns:xlink="http://www.w3.org/1999/xlink" x="0px" y="0px"
	 viewBox="0 0 28.938 48" enable-background="new 0 0 28.938 48" xml:space="preserve">
<g>
	<g>
		<g>
			<path fill="#FFFFFF" d="M3.389,41.672c-1.747,0-3.165,1.107-3.165,2.853c0,1.759,1.418,2.851,3.165,2.851
				c1.758,0,3.173-1.092,3.173-2.851C6.562,42.78,5.147,41.672,3.389,41.672z M3.389,46.104c-1.048,0-1.893-0.518-1.893-1.579
				c0-1.047,0.845-1.581,1.893-1.581c1.06,0,1.906,0.534,1.906,1.581C5.295,45.587,4.45,46.104,3.389,46.104z M13.618,41.775
				l-4.327,2.013v-2.01H8.02v5.495h1.271v-2.01l4.327,2.026l0.534-1.156l-3.446-1.608l3.446-1.604L13.618,41.775z M15.482,42.944
				h2.426v4.329h1.269v-4.329h2.437v-1.166h-6.132V42.944z M25.659,41.672c-1.758,0-3.175,1.107-3.175,2.853
				c0,1.759,1.417,2.851,3.175,2.851c1.747,0,3.162-1.092,3.162-2.851C28.821,42.78,27.406,41.672,25.659,41.672z M25.659,46.104
				c-1.061,0-1.906-0.518-1.906-1.579c0-1.047,0.846-1.581,1.906-1.581c1.048,0,1.903,0.534,1.903,1.581
				C27.562,45.587,26.706,46.104,25.659,46.104z M28.821,26.269c0-4.232-1.827-7.627-4.743-9.858
				c0.456-0.608,0.844-1.271,1.147-1.994L20.363,1.744c-1.717-0.795-3.708-1.216-5.842-1.216c-6.315,0-11.427,3.69-11.427,10.012
				c0,2.331,0.681,4.307,1.889,5.871c-2.923,2.231-4.759,5.626-4.759,9.858c0,7.897,6.403,12.865,14.297,12.865
				C22.419,39.134,28.821,34.167,28.821,26.269z M14.521,6.246c3.163,0,5.725,1.131,5.725,4.294c0,3.16-2.562,4.288-5.725,4.288
				c-3.155,0-5.719-1.128-5.719-4.288C8.802,7.378,11.366,6.246,14.521,6.246z M14.521,33.424c-4.736,0-8.575-2.419-8.575-7.155
				c0-4.745,3.839-7.153,8.575-7.153c4.738,0,8.577,2.409,8.577,7.153C23.098,31.005,19.259,33.424,14.521,33.424z"/>
		</g>
	</g>
</g>
</svg>
